<?xml version="1.0" encoding="utf-8"?>
<!-- Generator: Adobe Illustrator 15.1.0, SVG Export Plug-In . SVG Version: 6.00 Build 0)  -->
<!DOCTYPE svg PUBLIC "-//W3C//DTD SVG 1.1//EN" "http://www.w3.org/Graphics/SVG/1.1/DTD/svg11.dtd">
<svg version="1.1" id="Layer_1" xmlns="http://www.w3.org/2000/svg" xmlns:xlink="http://www.w3.org/1999/xlink" x="0px" y="0px"
	 width="20.5px" height="20.5px" viewBox="1.583 1.583 20.5 20.5" enable-background="new 1.583 1.583 20.5 20.5"
	 xml:space="preserve">
<path fill="#B7CDD1" d="M21.707,20.293l-4.531-4.531C18.318,14.314,19,12.487,19,10.5C19,5.806,15.194,2,10.5,2S2,5.806,2,10.5
	S5.806,19,10.5,19c1.987,0,3.814-0.682,5.262-1.824l4.531,4.531c0.391,0.391,1.023,0.391,1.414,0S22.098,20.684,21.707,20.293z
	 M15.16,15.031c-0.023,0.02-0.046,0.04-0.067,0.062s-0.042,0.044-0.062,0.067C13.861,16.299,12.262,17,10.5,17
	C6.91,17,4,14.09,4,10.5S6.91,4,10.5,4S17,6.91,17,10.5C17,12.262,16.299,13.861,15.16,15.031z"/>
</svg>
